<?xml version="1.0" encoding="iso-8859-1"?>
<!-- Generator: Adobe Illustrator 19.0.0, SVG Export Plug-In . SVG Version: 6.00 Build 0)  -->
<svg version="1.1" id="Layer_1" xmlns="http://www.w3.org/2000/svg" xmlns:xlink="http://www.w3.org/1999/xlink" x="0px" y="0px"
	 viewBox="0 0 512 512" style="enable-background:new 0 0 512 512;" xml:space="preserve">
<path style="fill:#E57500;" d="M488.611,51.22c-2.083-7.143-5.864-13.526-10.88-18.674c-5.181-5.313-11.674-9.315-18.982-11.486
	c-41.977-12.49-86.876-15.653-131.333-10.285c-24.571,2.954-48.999,8.51-72.733,16.557c-51.81,17.516-100.28,46.794-139.513,86.424
	c-39.684,40.092-68.896,89.742-86.17,142.764c-7.805,23.932-13.173,48.558-15.984,73.306c-5.038,44.358-1.83,89.091,10.373,130.958
	c1.852,6.338,5.027,12.082,9.227,16.888c5.424,6.206,12.534,10.858,20.636,13.272c41.922,12.467,86.765,15.631,131.179,10.296
	c24.571-2.943,49.021-8.499,72.755-16.535c51.865-17.516,100.379-46.806,139.645-86.468c39.651-40.048,68.852-89.654,86.126-142.632
	c7.816-23.921,13.195-48.547,16.006-73.284C504.021,137.92,500.823,93.131,488.611,51.22z"/>
<path style="fill:#C06100;" d="M498.96,182.322c-2.811,24.737-8.19,49.363-16.006,73.284
	c-17.274,52.979-46.475,102.584-86.126,142.632c-39.265,39.662-87.78,68.952-139.645,86.468
	c-23.733,8.036-48.183,13.592-72.755,16.535c-44.413,5.335-89.257,2.172-131.179-10.296c-8.102-2.414-15.212-7.066-20.636-13.272
	L477.729,32.547c5.016,5.148,8.797,11.531,10.88,18.674C500.823,93.131,504.021,137.92,498.96,182.322z"/>
<g>
	<path style="fill:#FFFFFF;" d="M498.96,182.322c-2.811,24.737-8.19,49.363-16.006,73.284L254.681,27.333
		c23.733-8.047,48.161-13.603,72.733-16.557L498.96,182.322z"/>
	<path style="fill:#FFFFFF;" d="M257.183,484.707c-23.733,8.036-48.183,13.592-72.755,16.535L13.014,329.828
		c2.811-24.748,8.179-49.374,15.984-73.306L257.183,484.707z"/>
</g>
<g>
	<path style="fill:#3C3A41;" d="M491.384,256.173c7.464-23.3,12.695-47.241,15.554-71.327c0.049-0.274,0.083-0.549,0.103-0.826
		c5.319-45.673,2.12-91.844-10.495-135.115c-5.044-17.298-18.293-30.671-35.443-35.771C431.806,4.418,400.746,0,368.788,0
		c-46.658,0-94.784,9.641-139.174,27.88c-45.277,18.604-86.882,46.289-120.319,80.061c-40.431,40.836-70.338,91.619-88.065,145.982
		c-0.32,0.67-0.548,1.372-0.677,2.091c-7.391,23.114-12.583,46.856-15.445,70.746c-0.141,0.61-0.22,1.23-0.222,1.852
		c-5.215,45.467-1.992,91.411,10.566,134.483c5.042,17.298,18.291,30.671,35.441,35.772c29.293,8.712,60.352,13.131,92.315,13.132
		c0.006,0,0.01,0,0.015,0c13.634,0,27.394-0.848,41.149-2.468c0.453-0.015,0.904-0.063,1.35-0.153
		c23.953-2.914,47.878-8.23,71.092-15.836c0.062-0.018,0.121-0.039,0.183-0.057c8.571-2.813,17.044-5.936,25.386-9.364
		c45.275-18.604,86.881-46.29,120.319-80.062c40.461-40.868,70.385-91.698,88.106-146.11
		C491.067,257.374,491.264,256.78,491.384,256.173z M456.389,28.982c11.74,3.491,20.818,12.669,24.281,24.55
		c10.397,35.662,14.073,73.398,11.591,111.117c-11.58-11.98-19.765-20.113-34.704-34.65c-3.274-3.185-8.509-3.112-11.69,0.16
		c-3.185,3.273-3.113,8.507,0.16,11.691c18.624,18.12,26.658,26.204,44.128,44.473c-2.268,17.69-5.866,35.288-10.752,52.575
		L272.979,30.404c17.047-4.94,34.434-8.621,51.952-10.94c24.867,24.474,59.539,59.519,82.071,82.97
		c1.624,1.69,3.791,2.54,5.963,2.54c2.06,0,4.124-0.765,5.727-2.306c3.293-3.164,3.397-8.398,0.234-11.689
		c-19.798-20.605-48.93-50.125-72.629-73.645c7.496-0.513,14.998-0.798,22.492-0.798C399.149,16.535,428.622,20.723,456.389,28.982z
		 M187.062,492.537L21.844,325.661c2.264-17.664,5.856-35.235,10.731-52.497l206.382,208.452
		C221.928,486.547,204.562,490.223,187.062,492.537z M143.209,495.465c-30.365-0.001-59.84-4.189-87.601-12.447
		c-11.741-3.491-20.818-12.669-24.281-24.55c-10.425-35.757-14.096-73.599-11.575-111.417L165.89,494.656
		C158.332,495.176,150.766,495.465,143.209,495.465z M390.952,392.424c-37.055,37.427-83.784,66.08-134.297,83.565L38.131,255.273
		c17.079-50.496,45.209-97.615,82.914-135.699c37.039-37.41,83.746-66.056,134.238-83.542l218.562,220.755
		C456.765,307.261,428.642,354.356,390.952,392.424z"/>
	<path style="fill:#3C3A41;" d="M331.909,191.079l9.019-9.111c3.212-3.245,3.187-8.479-0.06-11.691
		c-3.243-3.212-8.478-3.187-11.691,0.058l-8.904,8.993l-19.42-19.615c-3.214-3.245-8.447-3.271-11.691-0.058
		c-3.245,3.212-3.272,8.447-0.06,11.691l19.536,19.732l-27.369,27.643l-19.42-19.615c-3.212-3.244-8.447-3.272-11.691-0.058
		c-3.244,3.212-3.271,8.447-0.058,11.691l19.536,19.732l-27.369,27.643l-19.42-19.615c-3.214-3.245-8.449-3.271-11.691-0.058
		c-3.244,3.212-3.271,8.447-0.058,11.691l19.536,19.732l-27.369,27.643l-19.42-19.615c-3.212-3.244-8.447-3.271-11.691-0.058
		c-3.244,3.212-3.271,8.447-0.058,11.691l19.536,19.732L180.993,320c-3.213,3.245-3.187,8.479,0.058,11.691
		c1.612,1.596,3.715,2.392,5.817,2.392c2.13,0,4.258-0.818,5.875-2.451l10.52-10.626l19.421,19.615
		c1.617,1.633,3.746,2.451,5.876,2.451c2.102,0,4.204-0.797,5.816-2.392c3.244-3.212,3.271-8.447,0.058-11.691l-19.537-19.733
		l27.369-27.643l19.42,19.615c1.617,1.633,3.746,2.451,5.875,2.451c2.102,0,4.204-0.797,5.816-2.392
		c3.245-3.212,3.272-8.447,0.06-11.691l-19.537-19.732l27.369-27.643l19.42,19.615c1.617,1.633,3.746,2.451,5.875,2.451
		c2.102,0,4.204-0.797,5.816-2.392c3.245-3.212,3.272-8.447,0.06-11.691l-19.537-19.732l27.369-27.643l19.42,19.615
		c1.617,1.633,3.746,2.451,5.875,2.451c2.102,0,4.204-0.797,5.816-2.392c3.245-3.212,3.272-8.447,0.06-11.691L331.909,191.079z"/>
</g>
<g>
</g>
<g>
</g>
<g>
</g>
<g>
</g>
<g>
</g>
<g>
</g>
<g>
</g>
<g>
</g>
<g>
</g>
<g>
</g>
<g>
</g>
<g>
</g>
<g>
</g>
<g>
</g>
<g>
</g>
</svg>
